<svg width="25" height="30" viewBox="0 0 25 30" fill="none" xmlns="http://www.w3.org/2000/svg">
<g id="Group 272">
<path id="Vector (Stroke)" fill-rule="evenodd" clip-rule="evenodd" d="M12.5264 2C9.8079 2 7.20077 3.07991 5.27852 5.00216C3.35627 6.9244 2.27637 9.53153 2.27637 12.25C2.27637 16.2231 4.8546 20.0417 7.62732 22.9685C8.99323 24.4103 10.3625 25.5898 11.3915 26.4091C11.8489 26.7733 12.2374 27.0651 12.5264 27.2759C12.8153 27.0651 13.2039 26.7733 13.6613 26.4091C14.6902 25.5898 16.0595 24.4103 17.4254 22.9685C20.1981 20.0417 22.7764 16.2231 22.7764 12.25C22.7764 9.53153 21.6965 6.9244 19.7742 5.00216C17.852 3.07991 15.2448 2 12.5264 2ZM12.5264 28.5C11.9717 29.3321 11.9714 29.3319 11.9711 29.3317L11.9679 29.3295L11.96 29.3242L11.9322 29.3054C11.9085 29.2893 11.8744 29.266 11.8307 29.2357C11.7431 29.1751 11.6169 29.0865 11.4575 28.9713C11.1387 28.7411 10.6866 28.4045 10.1456 27.9737C9.0652 27.1133 7.62201 25.871 6.17541 24.344C3.32313 21.3333 0.276367 17.0269 0.276367 12.25C0.276367 9.0011 1.56699 5.88526 3.86431 3.58794C6.16163 1.29062 9.27746 0 12.5264 0C15.7753 0 18.8911 1.29062 21.1884 3.58794C23.4857 5.88526 24.7764 9.0011 24.7764 12.25C24.7764 17.0269 21.7296 21.3333 18.8773 24.344C17.4307 25.871 15.9875 27.1133 14.9071 27.9737C14.3661 28.4045 13.914 28.7411 13.5953 28.9713C13.4358 29.0865 13.3096 29.1751 13.2221 29.2357C13.1783 29.266 13.1442 29.2893 13.1205 29.3054L13.0928 29.3242L13.0849 29.3295L13.0825 29.3311C13.0822 29.3313 13.0811 29.3321 12.5264 28.5ZM12.5264 28.5L13.0811 29.3321C12.7452 29.556 12.307 29.5556 11.9711 29.3317L12.5264 28.5Z" fill="#848484"/>
<path id="Vector (Stroke)_2" fill-rule="evenodd" clip-rule="evenodd" d="M12.5264 9.5C11.0076 9.5 9.77637 10.7312 9.77637 12.25C9.77637 13.7688 11.0076 15 12.5264 15C14.0452 15 15.2764 13.7688 15.2764 12.25C15.2764 10.7312 14.0452 9.5 12.5264 9.5ZM7.77637 12.25C7.77637 9.62665 9.90301 7.5 12.5264 7.5C15.1497 7.5 17.2764 9.62665 17.2764 12.25C17.2764 14.8734 15.1497 17 12.5264 17C9.90301 17 7.77637 14.8734 7.77637 12.25Z" fill="#848484"/>
</g>
</svg>
