<svg width="27" height="27" viewBox="0 0 27 27" fill="none" xmlns="http://www.w3.org/2000/svg">
<g id="Group 275">
<path id="Vector (Stroke)" fill-rule="evenodd" clip-rule="evenodd" d="M13.5 2C7.14873 2 2 7.14873 2 13.5C2 19.8513 7.14873 25 13.5 25C19.8513 25 25 19.8513 25 13.5C25 7.14873 19.8513 2 13.5 2ZM0 13.5C0 6.04416 6.04416 0 13.5 0C20.9558 0 27 6.04416 27 13.5C27 20.9558 20.9558 27 13.5 27C6.04416 27 0 20.9558 0 13.5Z" fill="#848484"/>
<path id="Vector (Stroke)_2" fill-rule="evenodd" clip-rule="evenodd" d="M9.54769 15.3969C9.21571 14.9578 8.59083 14.8695 8.15006 15.2001C7.70823 15.5314 7.61869 16.1582 7.95006 16.6001L8.75006 16.0001C7.95006 16.6001 7.9503 16.6004 7.95055 16.6007L7.95109 16.6014L7.95229 16.603L7.95524 16.6069L7.96327 16.6174C7.96956 16.6256 7.97776 16.6361 7.98783 16.6488C8.00797 16.6743 8.03566 16.7085 8.07075 16.7504C8.14087 16.8339 8.24096 16.9481 8.36987 17.0826C8.62687 17.3508 9.00318 17.7047 9.49001 18.0588C10.4598 18.7641 11.912 19.5001 13.7501 19.5001C15.5881 19.5001 17.0403 18.7641 18.0101 18.0588C18.4969 17.7047 18.8733 17.3508 19.1303 17.0826C19.2592 16.9481 19.3592 16.8339 19.4294 16.7504C19.4645 16.7085 19.4921 16.6743 19.5123 16.6488C19.5224 16.6361 19.5306 16.6256 19.5369 16.6174L19.5449 16.6069L19.5478 16.603L19.549 16.6014L19.5496 16.6007C19.5498 16.6004 19.5501 16.6001 18.7501 16.0001L19.5501 16.6001C19.8814 16.1582 19.7919 15.5314 19.3501 15.2001C18.9084 14.8688 18.282 14.9582 17.9505 15.3995L17.9509 15.3989L17.9516 15.398L17.9523 15.3971L17.9442 15.4074C17.9353 15.4186 17.9197 15.4381 17.8974 15.4646C17.8528 15.5178 17.782 15.5989 17.6863 15.6988C17.4941 15.8994 17.2063 16.1704 16.8338 16.4413C16.0848 16.986 15.037 17.5001 13.7501 17.5001C12.4631 17.5001 11.4153 16.986 10.6664 16.4413C10.2938 16.1704 10.0061 15.8994 9.81384 15.6988C9.71815 15.5989 9.64733 15.5178 9.6027 15.4646C9.58042 15.4381 9.56478 15.4186 9.55592 15.4074L9.5478 15.3971M9.5477 15.3969C9.5477 15.3969 9.54769 15.3969 9.54769 15.3969L9.5477 15.3969Z" fill="#848484"/>
<path id="Vector (Stroke)_3" fill-rule="evenodd" clip-rule="evenodd" d="M9 9.75C9 9.19772 9.44772 8.75 10 8.75H10.0125C10.5648 8.75 11.0125 9.19772 11.0125 9.75C11.0125 10.3023 10.5648 10.75 10.0125 10.75H10C9.44772 10.75 9 10.3023 9 9.75Z" fill="#848484"/>
<path id="Vector (Stroke)_4" fill-rule="evenodd" clip-rule="evenodd" d="M16.5 9.75C16.5 9.19772 16.9477 8.75 17.5 8.75H17.5125C18.0648 8.75 18.5125 9.19772 18.5125 9.75C18.5125 10.3023 18.0648 10.75 17.5125 10.75H17.5C16.9477 10.75 16.5 10.3023 16.5 9.75Z" fill="#848484"/>
</g>
</svg>
