<svg width="28" height="27" viewBox="0 0 28 27" fill="none" xmlns="http://www.w3.org/2000/svg">
<g id="Group 273">
<path id="Vector (Stroke)" fill-rule="evenodd" clip-rule="evenodd" d="M14.9895 2.03516C16.3569 0.714515 18.1883 -0.0162445 20.0892 0.000274069C21.9901 0.0167926 23.8085 0.779267 25.1527 2.12348C26.4969 3.46769 27.2594 5.28608 27.2759 7.187C27.2924 9.08793 26.5617 10.9193 25.241 12.2867L25.2288 12.2991L21.479 16.0489C20.744 16.7842 19.8595 17.3528 18.8854 17.7161C17.9114 18.0795 16.8706 18.2291 15.8336 18.1548C14.7967 18.0805 13.7878 17.7841 12.8755 17.2857C11.9631 16.7872 11.1687 16.0984 10.546 15.2659C10.2152 14.8237 10.3055 14.197 10.7478 13.8662C11.19 13.5354 11.8167 13.6257 12.1475 14.068C12.5984 14.6708 13.1737 15.1696 13.8344 15.5306C14.495 15.8915 15.2256 16.1061 15.9765 16.1599C16.7274 16.2137 17.4811 16.1054 18.1864 15.8422C18.8918 15.5791 19.5323 15.1674 20.0645 14.635L20.0646 14.6348L23.8082 10.8913C24.7609 9.90174 25.2879 8.57814 25.276 7.20438C25.264 5.82785 24.7119 4.51108 23.7385 3.53769C22.7651 2.5643 21.4483 2.01216 20.0718 2.0002C18.6976 1.98826 17.3736 2.51564 16.3839 3.46894L14.2393 5.60111C13.8476 5.9905 13.2145 5.98865 12.8251 5.59699C12.4357 5.20533 12.4375 4.57217 12.8292 4.18278L14.9792 2.04528L14.9895 2.03516Z" fill="#848484"/>
<path id="Vector (Stroke)_2" fill-rule="evenodd" clip-rule="evenodd" d="M8.80776 9.11738C9.78181 8.75403 10.8226 8.60441 11.8596 8.67868C12.8965 8.75294 13.9054 9.04935 14.8177 9.5478C15.73 10.0462 16.5245 10.7351 17.1472 11.5676C17.478 12.0098 17.3877 12.6365 16.9454 12.9673C16.5032 13.2981 15.8765 13.2078 15.5457 12.7655C15.0948 12.1627 14.5195 11.6639 13.8588 11.3029C13.1981 10.942 12.4676 10.7273 11.7167 10.6736C10.9658 10.6198 10.2121 10.7281 9.50676 10.9912C8.80142 11.2544 8.16091 11.6661 7.62868 12.1985L3.88496 15.9422C2.93227 16.9317 2.40525 18.2553 2.41719 19.6291C2.42915 21.0056 2.98129 22.3224 3.95468 23.2958C4.92807 24.2692 6.24484 24.8213 7.62137 24.8333C8.99515 24.8452 10.3187 24.3182 11.3083 23.3655L13.4393 21.2344C13.8299 20.8439 14.463 20.8439 14.8535 21.2344C15.2441 21.625 15.2441 22.2581 14.8535 22.6486L12.716 24.7861L12.7037 24.7983C11.3363 26.119 9.50492 26.8497 7.60399 26.8332C5.70307 26.8167 3.88468 26.0542 2.54047 24.71C1.19626 23.3658 0.433785 21.5474 0.417266 19.6465C0.400748 17.7456 1.13151 15.9142 2.45215 14.5468L2.46433 14.5344L6.21421 10.7846C6.21416 10.7846 6.21425 10.7845 6.21421 10.7846C6.94917 10.0494 7.83376 9.48071 8.80776 9.11738Z" fill="#848484"/>
</g>
</svg>
