<svg width="24" height="25" viewBox="0 0 24 25" fill="none" xmlns="http://www.w3.org/2000/svg">
<g id="Group 277">
<g id="Group 270">
<path id="Vector (Stroke)" fill-rule="evenodd" clip-rule="evenodd" d="M3.41667 2C2.66595 2 2 2.63935 2 3.5V21C2 21.8607 2.66595 22.5 3.41667 22.5H20.3333C21.0841 22.5 21.75 21.8607 21.75 21V3.5C21.75 2.63935 21.0841 2 20.3333 2H3.41667ZM0 3.5C0 1.59923 1.49801 0 3.41667 0H20.3333C22.252 0 23.75 1.59923 23.75 3.5V21C23.75 22.9008 22.252 24.5 20.3333 24.5H3.41667C1.49801 24.5 0 22.9008 0 21V3.5Z" fill="#848484"/>
<path id="Vector (Stroke)_2" fill-rule="evenodd" clip-rule="evenodd" d="M7.64648 7C7.22944 7 6.83398 7.35953 6.83398 7.875C6.83398 8.39048 7.22944 8.75 7.64648 8.75C8.06353 8.75 8.45898 8.39048 8.45898 7.875C8.45898 7.35953 8.06353 7 7.64648 7ZM4.83398 7.875C4.83398 6.31941 6.0615 5 7.64648 5C9.23147 5 10.459 6.31941 10.459 7.875C10.459 9.43059 9.23147 10.75 7.64648 10.75C6.0615 10.75 4.83398 9.43059 4.83398 7.875Z" fill="#848484"/>
<path id="Vector (Stroke)_3" fill-rule="evenodd" clip-rule="evenodd" d="M16.7077 8.75C16.9788 8.75 17.2383 8.86006 17.4267 9.05498L23.4683 15.305C23.8522 15.7021 23.8415 16.3351 23.4444 16.719C23.0473 17.1028 22.4142 17.0921 22.0304 16.695L16.7077 11.1888L4.135 24.195C3.75115 24.5921 3.11808 24.6028 2.72099 24.219C2.32391 23.8351 2.31318 23.2021 2.69703 22.805L15.9887 9.05498C16.1771 8.86006 16.4366 8.75 16.7077 8.75Z" fill="#848484"/>
</g>
</g>
</svg>
