<svg width="27" height="25" viewBox="0 0 27 25" fill="none" xmlns="http://www.w3.org/2000/svg">
<g id="Group 274">
<path id="Vector (Stroke)" fill-rule="evenodd" clip-rule="evenodd" d="M3.66667 2C3.30209 2 2.94531 2.1495 2.67681 2.42726C2.40721 2.70616 2.25 3.09144 2.25 3.5V21C2.25 21.4086 2.40721 21.7938 2.67681 22.0727C2.94531 22.3505 3.30209 22.5 3.66667 22.5H23C23.3646 22.5 23.7214 22.3505 23.9899 22.0727C24.2595 21.7938 24.4167 21.4086 24.4167 21V7.25C24.4167 6.84144 24.2595 6.45616 23.9899 6.17726C23.7214 5.8995 23.3646 5.75 23 5.75H12.125C11.7851 5.75 11.4685 5.57738 11.2844 5.2917L9.16311 2H3.66667ZM1.23884 1.03721C1.87677 0.37728 2.74936 0 3.66667 0H9.70833C10.0482 0 10.3648 0.172618 10.5489 0.458299L12.6702 3.75H23C23.9173 3.75 24.7899 4.12728 25.4278 4.78721C26.0646 5.44599 26.4167 6.33247 26.4167 7.25V21C26.4167 21.9175 26.0646 22.804 25.4278 23.4628C24.7899 24.1227 23.9173 24.5 23 24.5H3.66667C2.74936 24.5 1.87677 24.1227 1.23884 23.4628C0.602018 22.804 0.25 21.9175 0.25 21V3.5C0.25 2.58248 0.602018 1.69599 1.23884 1.03721Z" fill="#848484"/>
<path id="Vector (Stroke)_2" fill-rule="evenodd" clip-rule="evenodd" d="M13.334 10C13.8863 10 14.334 10.4477 14.334 11V18.5C14.334 19.0523 13.8863 19.5 13.334 19.5C12.7817 19.5 12.334 19.0523 12.334 18.5V11C12.334 10.4477 12.7817 10 13.334 10Z" fill="#848484"/>
<path id="Vector (Stroke)_3" fill-rule="evenodd" clip-rule="evenodd" d="M8.70898 14.75C8.70898 14.1977 9.1567 13.75 9.70898 13.75H16.959C17.5113 13.75 17.959 14.1977 17.959 14.75C17.959 15.3023 17.5113 15.75 16.959 15.75H9.70898C9.1567 15.75 8.70898 15.3023 8.70898 14.75Z" fill="#848484"/>
</g>
</svg>
