<svg width="31" height="20" viewBox="0 0 31 20" fill="none" xmlns="http://www.w3.org/2000/svg">
<g id="Group 276">
<g id="Group 271">
<path id="Vector (Stroke)" fill-rule="evenodd" clip-rule="evenodd" d="M29.7076 2.61084C30.0407 2.78224 30.25 3.12542 30.25 3.5V16C30.25 16.3746 30.0407 16.7178 29.7076 16.8892C29.3745 17.0606 28.9736 17.0315 28.6688 16.8137L19.9188 10.5637C19.656 10.376 19.5 10.073 19.5 9.75C19.5 9.42705 19.656 9.12398 19.9188 8.93627L28.6688 2.68627C28.9736 2.46855 29.3745 2.43943 29.7076 2.61084ZM22.2205 9.75L28.25 14.0568V5.44319L22.2205 9.75Z" fill="#848484"/>
<path id="Vector (Stroke)_2" fill-rule="evenodd" clip-rule="evenodd" d="M4.25 2C3.42157 2 2.75 2.67157 2.75 3.5V16C2.75 16.8284 3.42157 17.5 4.25 17.5H18C18.8284 17.5 19.5 16.8284 19.5 16V3.5C19.5 2.67157 18.8284 2 18 2H4.25ZM0.75 3.5C0.75 1.567 2.317 0 4.25 0H18C19.933 0 21.5 1.567 21.5 3.5V16C21.5 17.933 19.933 19.5 18 19.5H4.25C2.317 19.5 0.75 17.933 0.75 16V3.5Z" fill="#848484"/>
</g>
</g>
</svg>
