<svg width="247" height="268" viewBox="0 0 247 268" fill="none" xmlns="http://www.w3.org/2000/svg">
<path fill-rule="evenodd" clip-rule="evenodd" d="M171.108 206.072C212.348 202.109 242.587 165.684 238.65 124.716C234.713 83.747 198.089 53.7483 156.849 57.7117C115.61 61.6751 85.3698 98.0997 89.3072 139.068C93.2445 180.037 129.868 210.036 171.108 206.072ZM171.201 207.046C212.983 203.03 243.619 166.128 239.63 124.621C235.641 83.1151 198.537 52.7228 156.756 56.7382C114.975 60.7536 84.3382 97.6563 88.3272 139.163C92.3162 180.669 129.42 211.061 171.201 207.046Z" fill="#74DEFF"/>
<path d="M158.573 75.6513C162.589 117.432 131.974 154.558 90.1926 158.573C48.4114 162.589 11.286 131.974 7.27056 90.1924C3.25514 48.4113 33.8703 11.2859 75.6514 7.27045C117.433 3.25503 154.558 33.8702 158.573 75.6513Z" fill="#74DEFF"/>
<path d="M101.92 89.6172C103.805 89.6172 105.494 89.915 106.988 90.5107C108.492 91.1064 109.669 91.9463 110.519 93.0303C111.368 94.1143 111.793 95.3594 111.793 96.7656C111.793 98.0645 111.446 99.2217 110.753 100.237C110.06 101.253 109.088 102.073 107.838 102.698C106.588 103.313 105.152 103.704 103.531 103.87V108.719H114.078V111.385H89.8789V108.719H100.309V103.87C98.6973 103.704 97.2715 103.313 96.0312 102.698C94.791 102.073 93.8242 101.253 93.1309 100.237C92.4473 99.2217 92.1055 98.0645 92.1055 96.7656C92.1055 95.3594 92.5254 94.1143 93.3652 93.0303C94.2148 91.9463 95.3818 91.1064 96.8662 90.5107C98.3604 89.915 100.045 89.6172 101.92 89.6172ZM95.2988 96.7656C95.2988 97.7031 95.5771 98.5186 96.1338 99.2119C96.6904 99.8955 97.4717 100.423 98.4775 100.794C99.4834 101.155 100.631 101.336 101.92 101.336C103.229 101.336 104.386 101.155 105.392 100.794C106.407 100.423 107.193 99.8955 107.75 99.2119C108.316 98.5186 108.6 97.7031 108.6 96.7656C108.6 95.8574 108.316 95.0615 107.75 94.3779C107.184 93.6943 106.393 93.1719 105.377 92.8105C104.371 92.4395 103.219 92.2539 101.92 92.2539C100.631 92.2539 99.4834 92.4395 98.4775 92.8105C97.4814 93.1719 96.7002 93.6943 96.1338 94.3779C95.5771 95.0615 95.2988 95.8574 95.2988 96.7656ZM137.193 96.4434H118.912V88.4746H122.105V93.8359H137.193V96.4434ZM115.777 98.4648H139.977V101.072H115.777V98.4648ZM118.648 102.918H137.018V109.686H121.959V111.736H137.896V114.285H118.678V107.312H133.795V105.438H118.648V102.918ZM162.33 108.045H149.791V90.7012H162.33V108.045ZM159.078 105.438V93.25H152.984V105.438H159.078ZM166.344 88.123H169.596V98.2891H173.668V101.043H169.596V114.607H166.344V88.123ZM195.67 94.1582H199.361V96.8242H195.67V103.006H192.418V88.123H195.67V94.1582ZM174.576 100.896C176.598 100.379 178.336 99.7002 179.791 98.8604C181.246 98.0107 182.389 97.0391 183.219 95.9453C184.059 94.8418 184.576 93.6504 184.771 92.3711H175.836V89.7344H188.316C188.316 92.0098 187.828 94.0557 186.852 95.8721C185.885 97.6885 184.474 99.2363 182.618 100.516C180.763 101.795 178.512 102.791 175.865 103.504L174.576 100.896ZM178.531 104.061H195.67V114.256H178.531V104.061ZM192.447 111.678V106.727H181.783V111.678H192.447ZM205.836 105.76H202.525L202.174 90.7891H206.158L205.836 105.76ZM201.91 109.949C201.91 109.549 202.013 109.178 202.218 108.836C202.423 108.484 202.701 108.206 203.053 108.001C203.404 107.796 203.785 107.693 204.195 107.693C204.596 107.693 204.967 107.796 205.309 108.001C205.66 108.206 205.938 108.484 206.144 108.836C206.349 109.178 206.451 109.549 206.451 109.949C206.451 110.359 206.349 110.74 206.144 111.092C205.938 111.443 205.66 111.722 205.309 111.927C204.967 112.132 204.596 112.234 204.195 112.234C203.785 112.234 203.404 112.132 203.053 111.927C202.701 111.722 202.423 111.443 202.218 111.092C202.013 110.74 201.91 110.359 201.91 109.949Z" fill="#333333"/>
<path d="M113.193 138.705H102.335V137.842H107.233V136.381H108.279V137.842H113.193V138.705ZM101.057 134.92H107.25V133.276H102.95V129.026H103.979V132.43H112.911V133.276H108.295V134.92H114.455V135.767H101.057V134.92ZM103.348 141.444C103.348 140.802 103.722 140.313 104.469 139.975C105.216 139.638 106.292 139.469 107.698 139.469C109.137 139.469 110.238 139.635 111.001 139.967C111.771 140.299 112.158 140.791 112.164 141.444C112.158 142.086 111.776 142.573 111.018 142.905C110.265 143.237 109.175 143.403 107.748 143.403C106.325 143.403 105.235 143.237 104.477 142.905C103.724 142.573 103.348 142.086 103.348 141.444ZM104.427 141.444C104.422 141.832 104.707 142.125 105.282 142.324C105.858 142.523 106.68 142.623 107.748 142.623C108.81 142.623 109.632 142.523 110.213 142.324C110.794 142.125 111.084 141.832 111.084 141.444C111.084 141.057 110.791 140.761 110.205 140.556C109.624 140.351 108.805 140.249 107.748 140.249C106.685 140.249 105.863 140.351 105.282 140.556C104.707 140.761 104.422 141.057 104.427 141.444ZM127.786 143.453H126.74V128.811H127.786V143.453ZM116.131 139.768C116.834 139.436 117.484 138.957 118.082 138.332C118.68 137.701 119.156 136.976 119.51 136.157C119.869 135.338 120.049 134.494 120.049 133.625V132.264H116.497V131.4H120.033V129.043H121.079V131.4H124.582V132.264H121.062V133.625C121.062 134.455 121.245 135.263 121.61 136.049C121.981 136.835 122.47 137.526 123.079 138.124C123.693 138.722 124.36 139.175 125.08 139.485L124.465 140.315C123.602 139.917 122.819 139.325 122.116 138.539C121.419 137.753 120.907 136.862 120.581 135.866C120.37 136.563 120.071 137.219 119.684 137.833C119.297 138.448 118.848 138.99 118.339 139.46C117.836 139.925 117.305 140.293 116.746 140.564L116.131 139.768ZM135.555 133.476C135.555 134.284 135.746 135.089 136.128 135.891C136.515 136.694 137.022 137.407 137.647 138.033C138.272 138.653 138.931 139.115 139.623 139.419L139.025 140.249C138.455 139.983 137.907 139.621 137.381 139.162C136.861 138.702 136.396 138.171 135.987 137.568C135.583 136.959 135.27 136.314 135.049 135.634C134.822 136.353 134.504 137.042 134.094 137.701C133.69 138.354 133.231 138.932 132.716 139.436C132.202 139.939 131.67 140.332 131.123 140.614L130.492 139.784C131.161 139.458 131.803 138.954 132.417 138.273C133.037 137.593 133.541 136.829 133.928 135.982C134.316 135.13 134.509 134.295 134.509 133.476V131.234H130.94V130.338H139.174V131.234H135.555V133.476ZM141.432 128.811H142.478V143.453H141.432V128.811ZM160.657 132.098H162.915V132.978H160.657V136.314H159.611V128.811H160.657V132.098ZM149.932 129.69H156.623V135.468H149.932V129.69ZM155.61 134.621V130.554H150.945V134.621H155.61ZM151.426 137.045H160.657V140.465H152.489V142.374H161.221V143.237H151.459V139.651H159.611V137.908H151.426V137.045ZM167.845 129.973C168.559 129.973 169.19 130.183 169.738 130.604C170.291 131.019 170.723 131.608 171.033 132.372C171.343 133.135 171.498 134.023 171.498 135.036C171.498 136.049 171.343 136.94 171.033 137.709C170.723 138.473 170.291 139.062 169.738 139.477C169.19 139.892 168.559 140.1 167.845 140.1C167.137 140.1 166.506 139.892 165.953 139.477C165.405 139.062 164.979 138.473 164.674 137.709C164.37 136.94 164.221 136.049 164.226 135.036C164.221 134.023 164.37 133.135 164.674 132.372C164.979 131.608 165.405 131.019 165.953 130.604C166.506 130.183 167.137 129.973 167.845 129.973ZM165.206 135.036C165.206 135.844 165.316 136.561 165.538 137.186C165.764 137.811 166.077 138.298 166.476 138.647C166.874 138.996 167.331 139.17 167.845 139.17C168.365 139.17 168.825 138.996 169.223 138.647C169.627 138.298 169.94 137.811 170.161 137.186C170.388 136.561 170.501 135.844 170.501 135.036C170.501 134.228 170.388 133.512 170.161 132.886C169.94 132.261 169.627 131.774 169.223 131.425C168.825 131.077 168.365 130.902 167.845 130.902C167.331 130.902 166.874 131.077 166.476 131.425C166.077 131.774 165.764 132.261 165.538 132.886C165.316 133.512 165.206 134.228 165.206 135.036ZM174.17 128.811H175.216V134.771H177.74V135.667H175.216V143.453H174.17V128.811ZM192.05 141.511H178.636V140.614H182.056V136.539C181.403 136.218 180.897 135.8 180.537 135.285C180.177 134.765 179.998 134.178 179.998 133.525C179.998 132.789 180.222 132.139 180.67 131.575C181.124 131.01 181.749 130.573 182.546 130.263C183.348 129.953 184.264 129.796 185.293 129.79C186.328 129.796 187.247 129.953 188.049 130.263C188.857 130.573 189.485 131.01 189.934 131.575C190.382 132.139 190.606 132.789 190.606 133.525C190.606 134.173 190.429 134.751 190.075 135.26C189.726 135.769 189.234 136.187 188.597 136.514V140.614H192.05V141.511ZM180.994 133.525C180.994 134.079 181.176 134.571 181.542 135.003C181.912 135.435 182.424 135.769 183.077 136.007C183.73 136.245 184.469 136.364 185.293 136.364C186.118 136.364 186.857 136.245 187.51 136.007C188.168 135.769 188.683 135.435 189.054 135.003C189.424 134.566 189.61 134.073 189.61 133.525C189.61 132.966 189.424 132.471 189.054 132.04C188.683 131.602 188.168 131.265 187.51 131.027C186.857 130.789 186.118 130.67 185.293 130.67C184.469 130.67 183.73 130.789 183.077 131.027C182.424 131.265 181.912 131.602 181.542 132.04C181.176 132.471 180.994 132.966 180.994 133.525ZM187.551 140.614V136.92C186.871 137.114 186.118 137.211 185.293 137.211C184.508 137.211 183.772 137.117 183.085 136.929V140.614H187.551ZM195.354 138.722H194.242L194.159 130.139H195.437L195.354 138.722ZM193.91 141.361C193.91 141.118 193.998 140.91 194.175 140.739C194.352 140.562 194.563 140.47 194.806 140.465C195.05 140.47 195.257 140.562 195.429 140.739C195.6 140.91 195.686 141.118 195.686 141.361C195.686 141.599 195.6 141.807 195.429 141.984C195.263 142.155 195.061 142.241 194.823 142.241C194.574 142.241 194.358 142.155 194.175 141.984C193.998 141.807 193.91 141.599 193.91 141.361Z" fill="#434343"/>
<path d="M58 247.5C58 258.822 48.8218 268 37.5 268C26.1782 268 17 258.822 17 247.5C17 236.178 26.1782 227 37.5 227C48.8218 227 58 236.178 58 247.5Z" fill="#74DEFF"/>
</svg>
