<svg width="1696" height="1062" viewBox="0 0 1696 1062" fill="none" xmlns="http://www.w3.org/2000/svg">
<path d="M234 877C234 941.617 181.617 994 117 994C52.3827 994 0 941.617 0 877C0 812.383 52.3827 760 117 760C181.617 760 234 812.383 234 877Z" fill="#74DEFF"/>
<path fill-rule="evenodd" clip-rule="evenodd" d="M969 1057C1179.42 1057 1350 886.42 1350 676C1350 465.58 1179.42 295 969 295C758.58 295 588 465.58 588 676C588 886.42 758.58 1057 969 1057ZM969 1062C1182.18 1062 1355 889.182 1355 676C1355 462.818 1182.18 290 969 290C755.818 290 583 462.818 583 676C583 889.182 755.818 1062 969 1062Z" fill="#74DEFF"/>
<path d="M969 386C969 599.182 796.182 772 583 772C369.818 772 197 599.182 197 386C197 172.818 369.818 0 583 0C796.182 0 969 172.818 969 386Z" fill="#74DEFF"/>
<path d="M507.226 798.01C507.226 778.09 506.262 755.439 504.333 730.056C502.726 704.353 499.672 687.646 495.172 679.935L596.428 686.2V798.01H662.004C679.041 798.01 697.042 796.082 716.007 792.227C734.973 788.371 748.956 781.303 757.957 771.021L777.243 814.878H324V798.01H507.226ZM339.43 668.368C371.575 652.303 401.309 631.419 428.632 605.716C455.955 580.012 477.171 553.184 492.279 525.231C507.387 496.957 513.977 471.415 512.048 448.603H604.625C604.625 473.985 595.946 500.813 578.588 529.087C597.232 533.264 615.394 538.726 633.073 545.473C650.753 551.899 665.218 558.807 676.469 566.196C693.506 577.12 706.203 589.33 714.561 602.824C723.24 616.318 727.58 629.17 727.58 641.379C727.58 650.054 725.49 657.605 721.311 664.03C717.133 670.456 711.346 674.954 703.953 677.525C696.238 680.095 689.649 681.38 684.184 681.38C672.29 681.38 661.843 676.561 652.843 666.922C643.842 657.283 635.163 642.343 626.805 622.102C620.698 607.322 612.179 595.434 601.25 586.438C590.321 577.12 576.016 567.321 558.337 557.039C532.299 589.169 499.833 615.676 460.937 636.56C422.042 657.444 381.539 668.047 339.43 668.368Z" fill="#333333"/>
<path d="M1024.34 845.722C1051.67 845.722 1070.95 840.742 1082.2 830.782C1093.45 821.143 1099.08 804.436 1099.08 780.66C1099.08 756.242 1093.45 739.213 1082.2 729.574C1071.27 719.614 1051.99 714.634 1024.34 714.634C997.019 714.634 977.732 719.614 966.482 729.574C955.552 739.213 950.088 756.242 950.088 780.66C950.088 804.436 955.552 821.143 966.482 830.782C977.732 840.742 997.019 845.722 1024.34 845.722ZM796.756 642.343H982.393C981.751 622.423 979.179 606.679 974.679 595.113H885.959C875.994 595.113 867.636 591.739 860.886 584.992C854.135 578.245 850.76 569.891 850.76 559.931V454.868H836.295V438H1182.5V454.868H939.962V506.918H1182.5V523.786H939.962V578.245H1182.5V595.113H1072.08V642.343H1134.76C1151.8 642.343 1169.8 640.415 1188.76 636.56C1207.73 632.383 1221.71 625.314 1230.71 615.354L1250 659.211H796.756V642.343ZM865.707 780.66C865.707 747.888 880.976 725.558 911.514 713.67C942.373 701.461 979.983 695.357 1024.34 695.357C1069.02 695.357 1106.63 701.461 1137.17 713.67C1168.03 725.558 1183.46 747.888 1183.46 780.66C1183.46 812.468 1168.03 834.477 1137.17 846.686C1106.63 858.895 1069.02 865 1024.34 865C979.983 865 942.373 858.895 911.514 846.686C880.976 834.477 865.707 812.468 865.707 780.66Z" fill="#333333"/>
<path d="M878.301 991.168H798.223V983.551H833.281V962.75H842.461V983.551H878.301V991.168ZM800.957 956.695C806.523 955.751 811.748 953.798 816.631 950.836C821.546 947.874 825.485 944.293 828.447 940.094C831.41 935.862 832.891 931.5 832.891 927.008V920.367H842.656V927.008C842.656 931.5 844.137 935.862 847.1 940.094C850.094 944.293 854.049 947.874 858.965 950.836C863.913 953.798 869.186 955.751 874.785 956.695L870.781 964.312C866.029 963.368 861.488 961.806 857.158 959.625C852.861 957.444 849.036 954.742 845.684 951.52C842.331 948.264 839.71 944.684 837.822 940.777C835.934 944.684 833.314 948.248 829.961 951.471C826.641 954.693 822.832 957.411 818.535 959.625C814.271 961.806 809.779 963.368 805.059 964.312L800.957 956.695Z" fill="#333333"/>
<path d="M963.75 962.945H885.234V957.77H963.75V962.945ZM893.926 974.273H953.984V1002.11H947.832V979.449H893.926V974.273ZM895.293 918.902H953.887V924.078H901.445V942.145H954.57V947.32H895.293V918.902Z" fill="#333333"/>
<path d="M1050.37 966.656H1014.43V984.43H1008.38V966.656H971.562V961.48H1050.37V966.656ZM981.914 976.129H988.066V994.391H1041.58V999.566H981.914V976.129ZM982.207 918.219H988.359V929.938H1033.67V918.219H1039.82V952.301H982.207V918.219ZM1033.67 947.125V934.82H988.359V947.125H1033.67Z" fill="#333333"/>
<path d="M1086.5 919.781C1090.74 919.781 1094.51 920.514 1097.83 921.979C1101.18 923.411 1103.79 925.445 1105.64 928.082C1107.53 930.719 1108.48 933.746 1108.48 937.164C1108.48 940.615 1107.53 943.674 1105.64 946.344C1103.79 948.98 1101.18 951.031 1097.83 952.496C1094.51 953.928 1090.74 954.645 1086.5 954.645C1082.3 954.645 1078.54 953.928 1075.22 952.496C1071.9 951.031 1069.32 948.964 1067.46 946.295C1065.64 943.626 1064.73 940.582 1064.73 937.164C1064.73 933.746 1065.64 930.719 1067.46 928.082C1069.32 925.445 1071.9 923.411 1075.22 921.979C1078.54 920.514 1082.3 919.781 1086.5 919.781ZM1060.53 962.652C1070.52 962.652 1080.17 962.441 1089.48 962.018C1098.82 961.562 1107.63 960.732 1115.9 959.527L1116.39 964.312C1108.7 965.647 1099.95 966.624 1090.12 967.242V998.883H1083.96V967.584C1077.13 967.877 1068.7 968.056 1058.67 968.121L1057.79 962.652H1060.53ZM1070.68 937.164C1070.65 939.54 1071.3 941.673 1072.64 943.561C1074 945.416 1075.89 946.865 1078.3 947.906C1080.74 948.948 1083.48 949.469 1086.5 949.469C1089.6 949.469 1092.36 948.948 1094.8 947.906C1097.25 946.865 1099.15 945.416 1100.52 943.561C1101.92 941.673 1102.62 939.54 1102.62 937.164C1102.62 934.853 1101.92 932.77 1100.52 930.914C1099.15 929.026 1097.25 927.561 1094.8 926.52C1092.36 925.478 1089.6 924.957 1086.5 924.957C1083.48 924.957 1080.74 925.478 1078.3 926.52C1075.89 927.561 1074 929.026 1072.64 930.914C1071.3 932.77 1070.65 934.853 1070.68 937.164ZM1122.64 915.484H1128.69V1001.71H1122.64V915.484Z" fill="#333333"/>
<path d="M1247.83 968.121H1167.85V960.797H1203.2V953.18H1178.3V917.145H1238.07V924.469H1187.68V931.598H1235.82V938.531H1187.68V945.953H1238.65V953.18H1212.48V960.797H1247.83V968.121ZM1177.52 988.043C1177.52 983.453 1180.14 979.938 1185.38 977.496C1190.62 975.055 1198.12 973.85 1207.89 973.883C1214.27 973.883 1219.71 974.42 1224.2 975.494C1228.72 976.568 1232.16 978.18 1234.5 980.328C1236.88 982.444 1238.07 985.016 1238.07 988.043C1238.03 992.633 1235.4 996.132 1230.16 998.541C1224.95 1000.95 1217.53 1002.14 1207.89 1002.11C1198.09 1002.14 1190.57 1000.95 1185.33 998.541C1180.12 996.132 1177.52 992.633 1177.52 988.043ZM1186.8 988.043C1186.76 990.419 1188.54 992.21 1192.12 993.414C1195.7 994.586 1200.96 995.139 1207.89 995.074C1214.73 995.139 1219.92 994.586 1223.47 993.414C1227.01 992.21 1228.79 990.419 1228.79 988.043C1228.79 985.667 1227.01 983.876 1223.47 982.672C1219.92 981.435 1214.73 980.816 1207.89 980.816C1200.99 980.816 1195.73 981.435 1192.12 982.672C1188.54 983.876 1186.76 985.667 1186.8 988.043Z" fill="#333333"/>
<path d="M1322.15 937.945H1335.43V943.219H1322.15V965.387H1316V915.484H1322.15V937.945ZM1255.35 924.859H1278.01V914.605H1284.06V924.859H1306.72V929.938H1255.35V924.859ZM1260.43 949.566C1260.43 946.539 1261.28 943.902 1262.97 941.656C1264.66 939.378 1267.05 937.62 1270.15 936.383C1273.27 935.146 1276.9 934.527 1281.04 934.527C1285.1 934.527 1288.68 935.146 1291.78 936.383C1294.87 937.62 1297.26 939.378 1298.96 941.656C1300.68 943.902 1301.54 946.539 1301.54 949.566C1301.54 952.626 1300.68 955.296 1298.96 957.574C1297.26 959.853 1294.87 961.611 1291.78 962.848C1288.68 964.052 1285.1 964.638 1281.04 964.605C1276.93 964.638 1273.32 964.052 1270.2 962.848C1267.07 961.611 1264.66 959.853 1262.97 957.574C1261.28 955.263 1260.43 952.594 1260.43 949.566ZM1266.29 949.566C1266.29 951.585 1266.89 953.375 1268.1 954.938C1269.33 956.467 1271.06 957.672 1273.27 958.551C1275.52 959.397 1278.11 959.82 1281.04 959.82C1283.9 959.82 1286.44 959.397 1288.65 958.551C1290.9 957.672 1292.64 956.467 1293.88 954.938C1295.11 953.375 1295.75 951.585 1295.78 949.566C1295.75 947.548 1295.11 945.774 1293.88 944.244C1292.64 942.682 1290.9 941.477 1288.65 940.631C1286.44 939.785 1283.9 939.378 1281.04 939.41C1278.11 939.378 1275.52 939.785 1273.27 940.631C1271.06 941.477 1269.33 942.682 1268.1 944.244C1266.89 945.774 1266.29 947.548 1266.29 949.566ZM1268.24 969.293H1274.3V979.352H1316V969.293H1322.15V1000.35H1268.24V969.293ZM1316 995.27V984.332H1274.3V995.27H1316Z" fill="#333333"/>
<path d="M1415.02 1001.62H1409.06V915.484H1415.02V1001.62ZM1341.29 930.914H1359.94V917.828H1366.09V930.914H1384.84V936.09H1341.29V930.914ZM1344.9 962.164C1344.87 958.355 1345.62 954.97 1347.15 952.008C1348.68 949.013 1350.81 946.686 1353.54 945.025C1356.31 943.365 1359.42 942.535 1362.87 942.535C1366.39 942.535 1369.51 943.365 1372.25 945.025C1375.01 946.686 1377.16 949.013 1378.69 952.008C1380.25 954.97 1381.04 958.355 1381.04 962.164C1381.04 962.75 1381 963.564 1380.94 964.605H1393.34V950.25H1380.35V945.074H1393.34V917.535H1399.1V997.125H1393.34V969.684H1379.86C1378.59 973.427 1376.45 976.389 1373.42 978.57C1370.42 980.719 1366.91 981.793 1362.87 981.793C1359.42 981.793 1356.31 980.963 1353.54 979.303C1350.81 977.643 1348.68 975.331 1347.15 972.369C1345.62 969.374 1344.87 965.973 1344.9 962.164ZM1350.27 962.164C1350.27 964.833 1350.83 967.258 1351.93 969.439C1353.04 971.62 1354.54 973.329 1356.43 974.566C1358.35 975.803 1360.49 976.422 1362.87 976.422C1365.28 976.422 1367.44 975.803 1369.37 974.566C1371.29 973.329 1372.8 971.637 1373.91 969.488C1375.01 967.307 1375.57 964.866 1375.57 962.164C1375.57 959.462 1375.01 957.037 1373.91 954.889C1372.8 952.74 1371.29 951.048 1369.37 949.811C1367.44 948.574 1365.28 947.939 1362.87 947.906C1360.49 947.939 1358.35 948.574 1356.43 949.811C1354.54 951.048 1353.04 952.74 1351.93 954.889C1350.83 957.037 1350.27 959.462 1350.27 962.164Z" fill="#333333"/>
<path d="M1465.21 927.105H1437.97V939.215H1464.24V944.195H1437.97V957.379H1439.73C1446.17 957.379 1451.58 957.216 1455.94 956.891C1460.33 956.533 1464.76 955.882 1469.22 954.938L1469.9 960.113C1465.02 961.122 1460.23 961.806 1455.55 962.164C1450.89 962.49 1444.8 962.652 1437.29 962.652H1432.01V921.93H1465.21V927.105ZM1443.14 972.32H1500.76V1001.62H1494.8V977.496H1443.14V972.32ZM1475.47 917.145H1481.33V938.434H1494.9V915.484H1500.76V967.633H1494.9V943.609H1481.33V967.047H1475.47V917.145Z" fill="#333333"/>
<path d="M1567.07 933.551C1567.07 937.099 1568.01 940.501 1569.9 943.756C1571.82 947.011 1574.44 949.876 1577.76 952.35C1581.08 954.791 1584.81 956.663 1588.95 957.965L1585.92 962.652C1580.9 961.057 1576.48 958.632 1572.64 955.377C1568.83 952.122 1566 948.346 1564.14 944.049C1562.35 948.769 1559.47 952.903 1555.5 956.451C1551.56 959.999 1546.99 962.652 1541.78 964.41L1538.65 959.527C1542.85 958.225 1546.64 956.288 1550.03 953.717C1553.41 951.113 1556.08 948.085 1558.04 944.635C1560.02 941.152 1561.02 937.457 1561.02 933.551V931.305H1540.9V926.129H1561.02V914.996H1567.27V926.129H1587.19V931.305H1567.07V933.551ZM1547.54 996.441C1552.06 995.628 1556.44 994.244 1560.67 992.291C1564.91 990.305 1568.4 987.896 1571.17 985.064C1573.94 982.2 1575.45 979.156 1575.71 975.934H1550.76V970.758H1607.11V975.934H1582.16C1582.39 979.124 1583.88 982.151 1586.65 985.016C1589.45 987.848 1592.98 990.257 1597.25 992.242C1601.51 994.228 1605.9 995.628 1610.43 996.441L1607.99 1001.32C1603.89 1000.54 1599.9 999.322 1596.03 997.662C1592.18 996.002 1588.75 993.967 1585.72 991.559C1582.73 989.117 1580.45 986.432 1578.89 983.502C1577.36 986.432 1575.08 989.101 1572.05 991.51C1569.06 993.919 1565.64 995.937 1561.8 997.564C1557.96 999.225 1553.98 1000.45 1549.88 1001.23L1547.54 996.441ZM1599.39 915.484H1605.55V937.457H1618.83V942.633H1605.55V965.875H1599.39V915.484Z" fill="#333333"/>
<path d="M1695.68 1001.62H1689.63V915.484H1695.68V1001.62ZM1626.25 979.84C1637.94 974.306 1646.97 967.275 1653.35 958.746C1659.73 950.217 1663.31 940.647 1664.09 930.035H1630.06V924.957H1670.29C1670.26 933.258 1668.8 941.119 1665.9 948.541C1663.03 955.93 1658.57 962.734 1652.52 968.951C1646.5 975.136 1638.88 980.458 1629.67 984.918L1626.25 979.84Z" fill="#333333"/>
</svg>
