<svg width="91" height="91" viewBox="0 0 91 91" fill="none" xmlns="http://www.w3.org/2000/svg">
<g id="Group 198">
<circle id="Ellipse 31" cx="45.2502" cy="45.7507" r="44.9167" fill="#00C2FF"/>
<g id="&#235;&#167;&#136;&#234;&#176;&#144; D-Day">
<path d="M38.0198 38.1372H30.4408V27.6099H38.0198V38.1372ZM36.3195 36.7444V28.9665H32.123V36.7444H36.3195ZM40.733 26H42.4514V32.349H45.0561V33.796H42.4514V42.207H40.733V26Z" fill="white" fill-opacity="0.945098"/>
<path d="M58.568 29.8166H60.9194V31.2456H58.568V35.1526H56.8496V26H58.568V29.8166ZM45.7615 34.0131C47.0458 33.6754 48.1522 33.2323 49.0807 32.6836C50.0153 32.1289 50.7478 31.4928 51.2784 30.7753C51.809 30.0518 52.1286 29.2679 52.2371 28.4238H46.5212V27.0129H54.1002C54.1002 28.3816 53.7987 29.6176 53.1958 30.721C52.5928 31.8244 51.7216 32.771 50.582 33.5609C49.4425 34.3447 48.0648 34.9537 46.4489 35.3878L45.7615 34.0131ZM48.1853 35.84H58.568V41.99H48.1853V35.84ZM56.8677 40.6153V37.269H49.9037V40.6153H56.8677Z" fill="white" fill-opacity="0.945098"/>
<path d="M19 62.8963V49.8005H23.6668C24.9751 49.8005 26.1057 50.0628 27.0583 50.5873C28.017 51.1058 28.7496 51.8565 29.256 52.8393C29.7625 53.8161 30.0157 54.9797 30.0157 56.3303C30.0157 57.6869 29.7595 58.8597 29.247 59.8485C28.7405 60.8313 28.0049 61.5849 27.0402 62.1095C26.0815 62.6341 24.939 62.8963 23.6125 62.8963H19ZM23.504 60.563C24.7701 60.563 25.7198 60.2193 26.3529 59.5319C26.9859 58.8446 27.3025 57.7774 27.3025 56.3303C27.3025 54.8953 26.9859 53.8372 26.3529 53.1558C25.7258 52.4745 24.7822 52.1339 23.5221 52.1339H21.7132V60.563H23.504Z" fill="white" fill-opacity="0.945098"/>
<path d="M38.0288 57.4156H32.0597V55.2812H38.0288V57.4156Z" fill="white" fill-opacity="0.945098"/>
<path d="M40.3079 62.8963V49.8005H44.9747C46.2831 49.8005 47.4136 50.0628 48.3662 50.5873C49.3249 51.1058 50.0575 51.8565 50.5639 52.8393C51.0704 53.8161 51.3237 54.9797 51.3237 56.3303C51.3237 57.6869 51.0674 58.8597 50.5549 59.8485C50.0484 60.8313 49.3128 61.5849 48.3481 62.1095C47.3895 62.6341 46.2469 62.8963 44.9204 62.8963H40.3079ZM44.8119 60.563C46.0781 60.563 47.0277 60.2193 47.6608 59.5319C48.2939 58.8446 48.6104 57.7774 48.6104 56.3303C48.6104 54.8953 48.2939 53.8372 47.6608 53.1558C47.0337 52.4745 46.0901 52.1339 44.83 52.1339H43.0212V60.563H44.8119Z" fill="white" fill-opacity="0.945098"/>
<path d="M52.7707 60.1469C52.7767 59.134 53.1174 58.3954 53.7927 57.9311C54.468 57.4608 55.3453 57.1925 56.4245 57.1262C57.0878 57.084 57.9017 57.0418 58.8664 56.9996V56.2037C58.8604 55.7937 58.7217 55.4772 58.4504 55.2541C58.1791 55.025 57.7932 54.9074 57.2928 54.9014C56.8406 54.9074 56.4728 55.0069 56.1894 55.1998C55.912 55.3867 55.7372 55.649 55.6648 55.9866H53.1144C53.1686 55.4078 53.3676 54.8893 53.7113 54.4311C54.061 53.9728 54.5464 53.6111 55.1674 53.3458C55.7884 53.0805 56.521 52.9478 57.3651 52.9478C58.1188 52.9478 58.8092 53.0654 59.4362 53.3005C60.0693 53.5357 60.5758 53.9035 60.9556 54.4039C61.3355 54.8983 61.5254 55.5224 61.5254 56.2761V62.8963H58.9931V61.5397H58.9207C58.6675 62.0161 58.2997 62.3929 57.8173 62.6702C57.335 62.9476 56.7441 63.0833 56.0447 63.0772C55.4056 63.0833 54.8388 62.9747 54.3444 62.7516C53.856 62.5285 53.4701 62.1969 53.1867 61.7568C52.9094 61.3166 52.7707 60.78 52.7707 60.1469ZM55.3392 60.0746C55.3392 60.4424 55.4719 60.7258 55.7372 60.9247C56.0085 61.1237 56.3642 61.2262 56.8044 61.2322C57.2023 61.2322 57.5581 61.1508 57.8716 60.988C58.1911 60.8252 58.4353 60.6052 58.6042 60.3278C58.779 60.0444 58.8664 59.7309 58.8664 59.3872V58.6727C58.0585 58.7089 57.3892 58.7481 56.8586 58.7903C56.3823 58.8325 56.0085 58.9652 55.7372 59.1883C55.4719 59.4053 55.3392 59.7008 55.3392 60.0746Z" fill="white" fill-opacity="0.945098"/>
<path d="M64.7813 66.5863C64.112 66.5743 63.6598 66.5562 63.4247 66.5321V64.4519C63.7322 64.476 64.0939 64.4881 64.51 64.4881C64.721 64.4881 64.8989 64.47 65.0436 64.4338C65.1883 64.3977 65.3239 64.3133 65.4506 64.1806C65.5772 64.054 65.6917 63.855 65.7942 63.5837L65.957 63.1677L62.4298 53.0744H65.2335L67.2955 60.3097H67.4041L69.4842 53.0744H72.3241L68.4894 63.9816C68.1939 64.8197 67.7478 65.4619 67.1508 65.908C66.56 66.3542 65.7701 66.5803 64.7813 66.5863Z" fill="white" fill-opacity="0.945098"/>
</g>
</g>
</svg>
