<svg width="25" height="19" viewBox="0 0 25 19" fill="none" xmlns="http://www.w3.org/2000/svg">
<g id="Group 153">
<path id="Vector (Stroke)" fill-rule="evenodd" clip-rule="evenodd" d="M4.14355 9.5C4.17577 9.44946 4.2095 9.39718 4.24472 9.3433C4.66556 8.69951 5.28741 7.84587 6.09053 6.99949C7.73187 5.26976 9.90303 3.8 12.5002 3.8C15.0973 3.8 17.2685 5.26976 18.9098 6.99949C19.7129 7.84587 20.3348 8.69951 20.7556 9.3433C20.7908 9.39718 20.8245 9.44946 20.8568 9.5C20.8245 9.55054 20.7908 9.60282 20.7556 9.6567C20.3348 10.3005 19.7129 11.1541 18.9098 12.0005C17.2685 13.7302 15.0973 15.2 12.5002 15.2C9.90303 15.2 7.73187 13.7302 6.09053 12.0005C5.28741 11.1541 4.66556 10.3005 4.24472 9.6567C4.2095 9.60282 4.17577 9.55054 4.14355 9.5ZM23.0772 9.5C24.7973 8.65029 24.797 8.64968 24.7967 8.64904L24.7942 8.64424L24.7897 8.63538L24.7763 8.60947C24.7654 8.5886 24.7507 8.56061 24.7322 8.52598C24.6951 8.45674 24.6426 8.36079 24.5749 8.24194C24.4397 8.00449 24.2431 7.67413 23.9866 7.2817C23.4759 6.50049 22.7155 5.45413 21.7157 4.40051C19.7512 2.33024 16.6339 0 12.5002 0C8.36644 0 5.24907 2.33024 3.28459 4.40051C2.28481 5.45413 1.52442 6.50049 1.01376 7.2817C0.757233 7.67413 0.560574 8.00449 0.425386 8.24194C0.357719 8.36079 0.305238 8.45674 0.268153 8.52598C0.249605 8.56061 0.234888 8.5886 0.224029 8.60947L0.210632 8.63538L0.206104 8.64424L0.204385 8.64762C0.20406 8.64826 0.203027 8.65029 1.9231 9.5L0.203027 8.65029C-0.0676757 9.1852 -0.0676757 9.8148 0.203027 10.3497L1.9231 9.5C0.203027 10.3497 0.202703 10.3491 0.203027 10.3497L0.204385 10.3524L0.206104 10.3558L0.210632 10.3646L0.224029 10.3905C0.234888 10.4114 0.249605 10.4394 0.268153 10.474C0.305238 10.5433 0.357719 10.6392 0.425386 10.7581C0.560574 10.9955 0.757233 11.3259 1.01376 11.7183C1.52442 12.4995 2.28481 13.5459 3.28459 14.5995C5.24907 16.6698 8.36644 19 12.5002 19C16.6339 19 19.7512 16.6698 21.7157 14.5995C22.7155 13.5459 23.4759 12.4995 23.9866 11.7183C24.2431 11.3259 24.4397 10.9955 24.5749 10.7581C24.6426 10.6392 24.6951 10.5433 24.7322 10.474C24.7507 10.4394 24.7654 10.4114 24.7763 10.3905L24.7897 10.3646L24.7942 10.3558L24.7959 10.3524C24.7963 10.3517 24.7973 10.3497 23.0772 9.5ZM23.0772 9.5L24.7973 10.3497C25.068 9.8148 25.0674 9.18395 24.7967 8.64904L23.0772 9.5Z" fill="#CECECE"/>
<path id="Vector (Stroke)_2" fill-rule="evenodd" clip-rule="evenodd" d="M12.5005 8.55C11.9423 8.55 11.4898 8.97533 11.4898 9.5C11.4898 10.0247 11.9423 10.45 12.5005 10.45C13.0586 10.45 13.5111 10.0247 13.5111 9.5C13.5111 8.97533 13.0586 8.55 12.5005 8.55ZM7.44727 9.5C7.44727 6.87665 9.70966 4.75 12.5005 4.75C15.2913 4.75 17.5536 6.87665 17.5536 9.5C17.5536 12.1234 15.2913 14.25 12.5005 14.25C9.70966 14.25 7.44727 12.1234 7.44727 9.5Z" fill="#CECECE"/>
</g>
</svg>
