<svg width="94" height="94" viewBox="0 0 94 94" fill="none" xmlns="http://www.w3.org/2000/svg">
<g id="Group 248">
<path id="Vector (Stroke)" fill-rule="evenodd" clip-rule="evenodd" d="M12.3684 4.94737C8.26989 4.94737 4.94737 8.26989 4.94737 12.3684V81.6316C4.94737 85.7301 8.26989 89.0526 12.3684 89.0526H81.6316C85.7301 89.0526 89.0526 85.7301 89.0526 81.6316V12.3684C89.0526 8.26989 85.7301 4.94737 81.6316 4.94737H12.3684ZM0 12.3684C0 5.53753 5.53753 0 12.3684 0H81.6316C88.4625 0 94 5.53753 94 12.3684V81.6316C94 88.4625 88.4625 94 81.6316 94H12.3684C5.53753 94 0 88.4625 0 81.6316V12.3684Z" fill="#CECECE"/>
<path id="Vector (Stroke)_2" fill-rule="evenodd" clip-rule="evenodd" d="M29.6838 24.7374C26.9514 24.7374 24.7364 26.9524 24.7364 29.6848C24.7364 32.4171 26.9514 34.6321 29.6838 34.6321C32.4162 34.6321 34.6312 32.4171 34.6312 29.6848C34.6312 26.9524 32.4162 24.7374 29.6838 24.7374ZM19.7891 29.6848C19.7891 24.2201 24.2191 19.79 29.6838 19.79C35.1485 19.79 39.5785 24.2201 39.5785 29.6848C39.5785 35.1495 35.1485 39.5795 29.6838 39.5795C24.2191 39.5795 19.7891 35.1495 19.7891 29.6848Z" fill="#CECECE"/>
<path id="Vector (Stroke)_3" fill-rule="evenodd" clip-rule="evenodd" d="M65.0401 35.3564C66.0061 34.3903 67.5724 34.3903 68.5384 35.3564L93.2753 60.0932C94.2413 61.0592 94.2413 62.6255 93.2753 63.5915C92.3092 64.5576 90.743 64.5576 89.777 63.5915L66.7893 40.6038L14.1174 93.2757C13.1513 94.2418 11.5851 94.2418 10.6191 93.2757C9.65302 92.3097 9.65302 90.7434 10.6191 89.7774L65.0401 35.3564Z" fill="#CECECE"/>
</g>
</svg>
