<svg width="25" height="19" viewBox="0 0 25 19" fill="none" xmlns="http://www.w3.org/2000/svg">
<g id="Group 155">
<g id="Group 149">
<path id="Vector (Stroke)" fill-rule="evenodd" clip-rule="evenodd" d="M4.44087 9.5007C4.81399 9.12186 5.29139 8.68315 5.86624 8.24483C7.4509 7.03655 9.6909 5.89218 12.5 5.89218C15.3091 5.89218 17.5491 7.03655 19.1338 8.24483C19.7086 8.68315 20.186 9.12186 20.5591 9.5007C20.186 9.87955 19.7086 10.3183 19.1338 10.7566C17.5491 11.9649 15.3091 13.1092 12.5 13.1092C9.6909 13.1092 7.4509 11.9649 5.86624 10.7566C5.29139 10.3183 4.81399 9.87955 4.44087 9.5007ZM23.0769 9.50071C24.6616 8.42986 24.6612 8.42922 24.6607 8.42856L24.6597 8.42712L24.6574 8.42387L24.6517 8.41585L24.636 8.39384C24.6236 8.37657 24.6073 8.35413 24.5871 8.32687C24.5468 8.27237 24.4909 8.19849 24.4197 8.10802C24.2774 7.92725 24.0732 7.67921 23.8087 7.38645C23.2814 6.80279 22.5048 6.0307 21.4912 5.25787C19.4701 3.7168 16.4217 2.11182 12.5 2.11182C8.57833 2.11182 5.52987 3.7168 3.50876 5.25787C2.4952 6.0307 1.71858 6.80279 1.19126 7.38645C0.92676 7.67921 0.722557 7.92725 0.580308 8.10802C0.509118 8.19849 0.453243 8.27237 0.412898 8.32687C0.392718 8.35413 0.376404 8.37657 0.363981 8.39384L0.34826 8.41585L0.342589 8.42387L0.340302 8.42712L0.339296 8.42856C0.338831 8.42922 0.338381 8.42986 1.92308 9.50071L0.338381 8.42986C-0.112794 9.07489 -0.112794 9.92652 0.338381 10.5715L1.92308 9.50071C0.338381 10.5715 0.338831 10.5722 0.339296 10.5729L0.340302 10.5743L0.342589 10.5775L0.34826 10.5856L0.363981 10.6076C0.376404 10.6248 0.392718 10.6473 0.412898 10.6745C0.453243 10.729 0.509118 10.8029 0.580308 10.8934C0.722557 11.0742 0.92676 11.3222 1.19126 11.615C1.71858 12.1986 2.4952 12.9707 3.50876 13.7435C5.52987 15.2846 8.57833 16.8896 12.5 16.8896C16.4217 16.8896 19.4701 15.2846 21.4912 13.7435C22.5048 12.9707 23.2814 12.1986 23.8087 11.615C24.0732 11.3222 24.2774 11.0742 24.4197 10.8934C24.4909 10.8029 24.5468 10.729 24.5871 10.6745C24.6073 10.6473 24.6236 10.6248 24.636 10.6076L24.6517 10.5856L24.6574 10.5775L24.6597 10.5743L24.6607 10.5729C24.6612 10.5722 24.6616 10.5715 23.0769 9.50071ZM23.0769 9.50071L24.6616 10.5715C25.1128 9.92652 25.1128 9.07489 24.6616 8.42986L23.0769 9.50071Z" fill="#CECECE"/>
<path id="Vector (Stroke)_2" fill-rule="evenodd" clip-rule="evenodd" d="M11.4524 9.38665C11.4521 9.38659 11.4538 9.38385 11.4585 9.37858C11.4551 9.38407 11.4528 9.38671 11.4524 9.38665ZM11.6686 9.23714C11.8538 9.14644 12.1375 9.06504 12.5005 9.06504C12.8634 9.06504 13.1471 9.14644 13.3323 9.23714C13.1471 9.32785 12.8634 9.40924 12.5005 9.40924C12.1375 9.40924 11.8538 9.32785 11.6686 9.23714ZM13.5485 9.38665C13.5481 9.38671 13.5458 9.38407 13.5424 9.37858C13.5471 9.38385 13.5488 9.38659 13.5485 9.38665ZM13.5424 9.0957C13.5458 9.09021 13.5481 9.08758 13.5485 9.08763C13.5488 9.08769 13.5471 9.09043 13.5424 9.0957ZM11.4585 9.0957C11.4538 9.09044 11.4521 9.08769 11.4524 9.08763C11.4528 9.08758 11.4551 9.09021 11.4585 9.0957ZM9.16771 6.24578C10.0976 5.6124 11.2824 5.27881 12.5005 5.27881C13.7185 5.27881 14.9033 5.6124 15.8332 6.24578C16.7611 6.87782 17.5536 7.91195 17.5536 9.23714C17.5536 10.5623 16.7611 11.5965 15.8332 12.2285C14.9033 12.8619 13.7185 13.1955 12.5005 13.1955C11.2824 13.1955 10.0976 12.8619 9.16771 12.2285C8.23983 11.5965 7.44727 10.5623 7.44727 9.23714C7.44727 7.91195 8.23983 6.87782 9.16771 6.24578Z" fill="#CECECE"/>
<path id="Vector (Stroke)_3" fill-rule="evenodd" clip-rule="evenodd" d="M12.4967 5.89215C11.9249 5.89119 11.3563 5.93781 10.8035 6.03031C9.75648 6.2055 8.76321 5.51327 8.58497 4.48416C8.40673 3.45506 9.11101 2.47879 10.158 2.3036C10.9284 2.1747 11.7146 2.1106 12.5016 2.11183C16.4225 2.11228 19.4704 3.71701 21.4912 5.25786C22.5048 6.03067 23.2814 6.80276 23.8087 7.38641C24.0732 7.67917 24.2774 7.92721 24.4197 8.10798C24.4909 8.19845 24.5468 8.27232 24.5871 8.32682C24.6073 8.35408 24.6236 8.37652 24.636 8.3938L24.6517 8.4158L24.6574 8.42382L24.6597 8.42707L24.6607 8.42851C24.6612 8.42917 24.6616 8.42982 23.0769 9.50065L24.6616 8.42982C25.1254 9.09283 25.1113 9.97174 24.6265 10.6201C23.9519 11.5221 23.1561 12.3599 22.2575 13.1233C21.6473 13.6417 20.8 13.7163 20.1235 13.3762C20.2056 14.1107 19.8426 14.8559 19.1439 15.2365C17.1947 16.2986 14.8754 16.8618 12.5229 16.8893L12.5 16.8896V16.8895C8.57833 16.8895 5.52987 15.2845 3.50876 13.7434C2.4952 12.9706 1.71858 12.1985 1.19126 11.6149C0.926761 11.3221 0.722557 11.0741 0.580309 10.8933C0.509119 10.8028 0.453244 10.729 0.412898 10.6745C0.392719 10.6472 0.376405 10.6248 0.363981 10.6075L0.348261 10.5855L0.34259 10.5775L0.340303 10.5742L0.339297 10.5728C0.338832 10.5721 0.338382 10.5715 1.92308 9.50065L0.338382 10.5715C-0.126117 9.90741 -0.111167 9.02691 0.375618 8.37844C1.7569 6.53838 3.63752 4.97575 5.85479 3.76546C6.7833 3.25863 7.95403 3.58759 8.46968 4.50021C8.98533 5.41283 8.65064 6.56351 7.72213 7.07034C6.43435 7.77327 5.33339 8.59701 4.44104 9.50082C4.81413 9.87963 5.29148 10.3183 5.86624 10.7565C6.80853 11.475 7.98253 12.1709 9.37013 12.617C9.33213 12.5915 9.29448 12.5654 9.25721 12.5388C8.78716 12.2028 8.37027 11.7696 8.07218 11.2421C7.77124 10.7095 7.60572 10.1039 7.62137 9.46986C7.637 8.83647 7.83174 8.24138 8.15335 7.72542C8.47211 7.21404 8.90309 6.79825 9.3827 6.47879C10.2619 5.89317 11.4577 6.11897 12.0535 6.98313C12.6292 7.81817 12.4341 8.94372 11.6271 9.54703C11.6967 9.58358 11.7841 9.61998 11.8897 9.65047C12.0586 9.69924 12.252 9.7263 12.4543 9.72375C12.6566 9.7212 12.8465 9.68929 13.0092 9.63746C13.173 9.58532 13.2866 9.52041 13.3552 9.46775C14.1925 8.82546 15.401 8.9719 16.0544 9.79482C16.7079 10.6177 16.5589 11.8055 15.7217 12.4478C15.6021 12.5396 15.4782 12.6251 15.3507 12.7044C16.0455 12.5095 16.6952 12.2484 17.2791 11.9303C17.8609 11.6133 18.5375 11.6242 19.0884 11.9009C19.0218 11.3039 19.2452 10.6857 19.7425 10.2632C20.0328 10.0165 20.3059 9.76275 20.5613 9.50286C20.1879 9.12351 19.7097 8.68395 19.1338 8.24479C17.5491 7.03652 15.3091 5.89216 12.5 5.89216L12.4967 5.89215ZM12.5016 2.11183C12.5022 2.11183 12.5027 2.11184 12.5033 2.11184L12.5 4.002V2.11183C12.5005 2.11183 12.5011 2.11183 12.5016 2.11183Z" fill="#CECECE"/>
<path id="Vector (Stroke)_4" fill-rule="evenodd" clip-rule="evenodd" d="M0.367947 0.782597C0.992629 -0.0660311 2.19534 -0.253654 3.05428 0.36353L24.2079 15.5633C25.0668 16.1805 25.2567 17.3688 24.6321 18.2174C24.0074 19.066 22.8047 19.2537 21.9457 18.6365L0.792105 3.43668C-0.0668333 2.8195 -0.256735 1.63122 0.367947 0.782597Z" fill="#CECECE"/>
</g>
</g>
</svg>
